<svg width="56" height="55" viewBox="0 0 56 55" fill="none" xmlns="http://www.w3.org/2000/svg">
<path d="M27.6025 0C20.1268 0 19.1951 0.0360983 16.2694 0.159864C13.3317 0.304257 11.3446 0.759782 9.59123 1.44049C7.75617 2.13327 6.09427 3.21793 4.7214 4.61886C3.31656 5.98852 2.2313 7.65134 1.54303 9.48869C0.862322 11.242 0.406796 13.2292 0.262403 16.1669C0.130043 19.0943 0.102539 20.0242 0.102539 27.5C0.102539 34.9758 0.138637 35.9075 0.262403 38.8331C0.406796 41.7622 0.862322 43.758 1.54303 45.5113C2.23581 47.3464 3.32047 49.0083 4.7214 50.3811C6.09106 51.786 7.75388 52.8712 9.59123 53.5595C11.3446 54.2316 13.3403 54.6957 16.2694 54.8401C19.1968 54.9725 20.1268 55 27.6025 55C35.0783 55 36.01 54.9639 38.9357 54.8401C41.8648 54.6957 43.8605 54.2299 45.6139 53.5595C47.4489 52.8667 49.1108 51.7821 50.4837 50.3811C51.8903 49.013 52.9759 47.3497 53.662 45.5113C54.3342 43.758 54.7983 41.7622 54.9427 38.8331C55.075 35.9057 55.1025 34.9758 55.1025 27.5C55.1025 20.0242 55.0664 19.0925 54.9427 16.1669C54.7983 13.2377 54.3324 11.2317 53.662 9.48869C52.9693 7.65363 51.8846 5.99173 50.4837 4.61886C49.1155 3.21221 47.4523 2.12667 45.6139 1.44049C43.8605 0.759782 41.8648 0.304257 38.9357 0.159864C36.0083 0.0275034 35.0783 0 27.6025 0ZM27.6025 4.95062C34.9442 4.95062 35.8209 4.98672 38.7225 5.11048C41.399 5.23597 42.8566 5.6829 43.8244 6.06107C45.0209 6.50271 46.1037 7.20564 46.9942 8.11867C47.9057 9.00536 48.606 10.0858 49.0432 11.2798C49.4214 12.2476 49.8683 13.7053 49.9938 16.3817C50.1175 19.2833 50.1536 20.1617 50.1536 27.5017C50.1536 34.8417 50.1175 35.7201 49.9835 38.6217C49.8391 41.2981 49.3921 42.7558 49.0157 43.7236C48.4948 45.0145 47.9138 45.917 46.9546 46.8934C46.0612 47.8007 44.979 48.5002 43.7849 48.9424C42.8291 49.3205 41.3508 49.7675 38.6641 49.893C35.747 50.0167 34.8875 50.0528 27.5269 50.0528C20.1663 50.0528 19.3085 50.0167 16.388 49.8826C13.7116 49.7382 12.235 49.2913 11.2672 48.9149C9.9608 48.394 9.06522 47.813 8.10604 46.8538C7.13826 45.886 6.52287 44.9647 6.04844 43.6841C5.66339 42.7283 5.22334 41.25 5.08066 38.5633C4.98268 35.6806 4.93627 34.7867 4.93627 27.4605C4.93627 20.1377 4.98268 19.2421 5.08066 16.3233C5.22334 13.6365 5.66339 12.1617 6.04844 11.2025C6.52287 9.89436 7.13998 9.0005 8.10604 8.03272C9.0635 7.07526 9.9608 6.45643 11.2672 5.97168C12.235 5.59523 13.6755 5.1483 16.3622 5.01422C19.2793 4.90936 20.1388 4.87155 27.4891 4.87155L27.6025 4.95062ZM27.6025 13.3856C25.7484 13.3849 23.9122 13.7496 22.1991 14.4589C20.4859 15.1681 18.9293 16.208 17.6182 17.5191C16.3071 18.8302 15.2672 20.3868 14.558 22.1C13.8487 23.8131 13.484 25.6493 13.4847 27.5034C13.484 29.3576 13.8487 31.1937 14.558 32.9069C15.2672 34.6201 16.3071 36.1767 17.6182 37.4878C18.9293 38.7989 20.4859 39.8388 22.1991 40.548C23.9122 41.2573 25.7484 41.622 27.6025 41.6213C29.4567 41.622 31.2928 41.2573 33.006 40.548C34.7192 39.8388 36.2758 38.7989 37.5869 37.4878C38.898 36.1767 39.9379 34.6201 40.6471 32.9069C41.3564 31.1937 41.7211 29.3576 41.7204 27.5034C41.7211 25.6493 41.3564 23.8131 40.6471 22.1C39.9379 20.3868 38.898 18.8302 37.5869 17.5191C36.2758 16.208 34.7192 15.1681 33.006 14.4589C31.2928 13.7496 29.4567 13.3849 27.6025 13.3856ZM27.6025 36.6707C22.535 36.6707 18.4353 32.5709 18.4353 27.5034C18.4353 22.4359 22.535 18.3362 27.6025 18.3362C32.67 18.3362 36.7698 22.4359 36.7698 27.5034C36.7698 32.5709 32.67 36.6707 27.6025 36.6707ZM45.5898 12.8218C45.5889 13.6979 45.2402 14.5378 44.6204 15.1569C44.0006 15.7761 43.1603 16.1239 42.2842 16.1239C41.851 16.1239 41.4221 16.0386 41.0219 15.8728C40.6216 15.707 40.258 15.464 39.9517 15.1577C39.6454 14.8514 39.4024 14.4878 39.2366 14.0876C39.0709 13.6873 38.9855 13.2584 38.9855 12.8252C38.9855 12.392 39.0709 11.9631 39.2366 11.5628C39.4024 11.1626 39.6454 10.799 39.9517 10.4927C40.258 10.1864 40.6216 9.94338 41.0219 9.7776C41.4221 9.61183 41.851 9.5265 42.2842 9.5265C44.1012 9.5265 45.5898 11.0048 45.5898 12.8218Z" fill="#97222E"/>
</svg>
