<svg width="166" height="79" viewBox="0 0 166 79" fill="none" xmlns="http://www.w3.org/2000/svg">
<g clip-path="url(#clip0)">
<path d="M42.86 41.1435C43.1069 45.2236 45.2522 45.9663 45.8737 45.9663C46.2099 45.9663 48.7597 44.0591 51.1817 42.1055C52.1309 41.5907 53.2376 40.9578 54.4295 40.2447C54.6721 44.3249 56.8175 45.0675 57.4389 45.0675C57.9284 45.0675 63.9516 40.1688 67.11 37.3291C66.5439 38.8565 66.2587 40.1266 66.314 41.0084C66.4204 42.2236 70.2301 44.9705 70.9665 44.9072C70.6132 40.8903 83.8683 15.8186 83.5619 12.3122C83.2809 9.11815 79.2201 7.14346 79.2201 7.14346C79.4617 7.68414 79.6402 8.2504 79.7522 8.83123C80.1438 13.27 72.5159 25.4557 68.5913 33.8439C67.4803 34.5359 60.1376 41.6878 57.988 41.6878C57.988 40.8101 58.6223 38.9747 59.5843 36.9916C64.4326 33.8228 68.9574 30.3798 68.9574 29.0886C68.9574 27.6793 68.7233 26.1603 66.0373 26.1603C62.632 26.1603 56.9452 31.9367 55.0424 36.6414C53.5441 37.7764 48.4021 42.6034 46.4058 42.6034C46.4058 41.7257 47.0442 39.8903 48.0062 37.9072C52.8545 34.7215 57.3921 31.2869 57.3921 29.9873C57.3921 28.5738 57.158 27.0591 54.4678 27.0591C50.5517 27.0591 43.6602 34.654 42.8983 39.5232C41.0467 40.5865 39.4632 41.2996 38.6161 41.2996C38.6161 41.2996 38.5736 41.2996 38.5523 41.2996C41.0467 36.135 45.6651 28.27 48.9512 22.1435C52.7822 21.1435 56.694 20.211 59.065 20.211C62.7044 20.211 63.5089 20.8776 63.5089 20.8776C63.5089 20.8776 63.9899 20.4557 63.9899 19.3966C63.9899 17.6498 64.4155 16.443 58.7542 16.443C56.2168 16.4875 53.6986 16.8896 51.2753 17.6371C52.1735 15.7679 52.7268 14.3629 52.7268 13.6835C52.7268 10.3671 48.7214 7.97469 48.7214 7.97469C48.9221 8.55834 49.0549 9.16282 49.1172 9.77637C49.1172 11.9578 47.1166 15.7595 44.4988 20.0422C42.0512 20.9873 39.9825 21.7511 38.4927 21.7511C38.1522 21.7511 37.8797 21.7511 37.6414 21.7215C39.3057 19.7384 40.621 17.5359 40.621 15.5907C40.621 13.1688 37.1816 8.7595 35.0448 8.7595C27.8724 8.76372 21.2831 11.2363 21.2831 14.6287C21.2831 18.0211 26.3485 23.308 26.3485 28.6329C26.3485 40.8692 17.4096 46.3544 12.2208 46.3544C11.2499 46.358 10.2795 46.3115 9.3135 46.2152C9.15905 45.6933 9.08444 45.1514 9.09216 44.6076C9.09216 39.7089 18.1417 33.5992 21.9259 33.5992C24.0542 33.5992 24.3309 32.27 23.7818 31.1181C22.8623 29.1814 21.5939 27.7046 20.6361 27.7046H20.6021H20.5765C19.5507 27.7046 10.8842 29.3924 9.15601 29.3924C0.851326 29.4684 -3.39583e-07 28.2025 -3.39583e-07 28.2025C-3.39583e-07 28.2025 -0.31499 34.3882 8.13016 34.3882H8.61541C6.55521 36.3629 5.05687 38.7173 5.05687 41.384C5.05687 45.2827 12.8593 50.5063 16.2092 50.5063C20.7596 50.5021 30.6477 44.7722 30.6477 34.2363C30.6477 23.7004 24.6374 24.5654 24.6374 16.8312C24.6374 13.8059 31.7502 11.5443 34.4872 11.5443C37.2242 11.5443 37.2114 12.0844 37.2114 12.4262C37.2114 16.3249 28.4726 23.173 28.4726 23.8861C28.4726 24.7004 29.5495 27.6329 30.5754 27.6329C31.1032 27.6329 33.721 25.8144 36.1515 23.3502C36.3729 24.0042 36.9603 24.5781 38.3437 24.5781C39.5992 24.4853 40.8424 24.2704 42.0555 23.9367C37.4839 31.0675 32.3759 38.5527 32.3759 41.7046C32.3759 42.9705 36.0494 46.1308 36.8113 46.1308C36.8755 45.4487 37.0479 44.7808 37.3221 44.1519C39.2259 43.2574 41.075 42.2528 42.86 41.1435ZM66.0501 29.5612C66.9312 29.5612 64.3091 31.9662 60.9123 34.557C62.5086 31.8903 64.4751 29.5612 66.0501 29.5612ZM54.4848 30.4557C55.3362 30.4557 52.8503 32.6878 49.5471 35.1266C51.1008 32.5992 52.9737 30.4557 54.4848 30.4557Z" fill="#231F20"/>
<path d="M157.593 42.1224C157.593 42.1224 158.33 45.6076 141.95 45.6076C137.353 45.6076 98.0046 46.4515 83.3959 46.5949C86.8948 38.7553 90.1171 30.6203 93.0542 23.5781C94.6953 23.293 96.3559 23.1322 98.0217 23.097C100.525 23.097 101.074 23.557 101.074 23.557C101.444 23.1672 101.676 22.6677 101.733 22.135C101.733 20.9367 100.725 20.5105 97.8131 20.5105C96.5457 20.5746 95.2901 20.7842 94.0715 21.135C98.3281 11.1857 101.929 3.9789 104.926 3.9789C107.276 3.9789 107.433 4.88186 107.433 5.1519C107.433 7.62447 104.513 10.8059 101.87 10.8059C101.084 10.8122 100.301 10.7056 99.5455 10.4895C99.5455 10.4895 100.32 14.7089 102.951 14.7089C105.581 14.7089 110.579 11.4388 110.579 7.59494C110.579 5.87764 108.344 0 104.104 0C99.039 0 93.9694 9.77637 88.4443 22.2278C87.0949 22.2278 86.8778 22.0084 86.8778 22.0084C86.8778 22.0084 86.2861 23.6667 87.644 24.076C84.4813 31.2827 81.1654 39.2405 77.6196 46.6498C66.5524 46.9451 43.9242 49.5527 43.9242 61.4515C43.9242 67.0127 51.2754 79 56.9282 79C66.1863 79 74.3804 65.9662 81.5017 50.7637H82.4722C96.7106 50.7637 132.645 54.0295 146.807 54.0295C155.107 54.0295 159.696 52.9156 159.696 46.2363C159.687 45.4367 159.492 44.6499 159.128 43.9366C158.763 43.2233 158.238 42.6026 157.593 42.1224ZM52.7822 74.1603C48.7555 74.1603 47.5423 65.2701 47.5423 64.1181C47.5423 60.8734 47.1635 52.1224 75.5126 50.903C68.9148 63.8397 61.4998 74.1603 52.7822 74.1603Z" fill="#231F20"/>
<path d="M109.183 31.3755C109.183 30.8017 108.787 30.789 108.578 30.789C108.489 30.789 107.829 31.3713 106.875 32.0211C106.599 25.865 104.517 24.962 101.423 24.962C98.89 24.962 96.7404 26.7595 96.7404 28.6034C96.7404 28.7047 96.7404 28.8144 96.7404 28.9325H96.6851C94.0843 28.9325 90.1767 34.1857 90.1767 37.4557C90.1767 39.865 92.454 43.7215 95.059 43.7215C97.6641 43.7215 106.914 38.1013 106.914 33.4937C106.914 33.422 106.914 33.3629 106.914 33.2912C108.263 32.4895 109.183 31.6456 109.183 31.3755ZM98.4558 29.3165C98.4956 28.4785 98.8642 27.6892 99.4829 27.1169C100.102 26.5446 100.921 26.2346 101.767 26.2532C103.628 26.2532 104.594 27.0971 104.594 28.3924C104.594 30.0802 103.347 32.0253 101.763 33.7469C100.911 33.6002 100.142 33.15 99.6009 32.481C99.8408 32.2592 100.03 31.9886 100.154 31.6878C100.154 31.3038 99.4604 30.2574 98.4516 29.5781C98.4479 29.4909 98.4494 29.4035 98.4558 29.3165ZM95.2378 37.9072C95.2378 37.1393 96.9405 35.3123 98.3494 33.8186C98.8739 34.4755 99.6183 34.9245 100.448 35.0844C98.4005 36.9705 96.2168 38.3418 95.4592 38.3418C95.2974 38.3249 95.2378 38.173 95.2378 37.9072Z" fill="#231F20"/>
<path d="M106.535 25.8312C106.535 27.7131 109.17 29.2743 110.196 29.2743C110.804 29.261 111.409 29.1847 112 29.0464C109.923 31.4641 108.118 34.2869 108.118 36.0717C108.118 39.2616 110.783 42.8523 111.298 42.8523C111.617 42.8523 114.997 40.3207 117.487 38.0337L117.96 37.7553C118.202 41.8354 120.348 42.5781 120.973 42.5781C121.454 42.5781 126.473 38.6709 129.159 36.3122C129.921 38.4219 131.798 41.5443 134.122 41.7975C137.259 42.1603 138.975 39.4051 139.375 36.0548C139.609 34.0717 138.698 32.6076 137.97 31.2447C139.456 30.27 140.95 28.8776 141.112 27.4135C141.439 24.6456 140.486 23.5316 138.098 23.2532C135.71 22.9747 134.633 24.9662 134.488 26.2067C134.39 27.0506 135.472 29.1013 136.089 30.8481C135.64 31.1408 135.11 31.2882 134.573 31.27C134.369 31.2447 134.212 30.9747 134.097 30.962C133.982 30.9494 133.671 31.1983 133.65 31.384C133.717 31.6944 133.873 31.979 134.1 32.2035C134.326 32.428 134.613 32.583 134.927 32.6498C135.464 32.5891 135.982 32.4197 136.451 32.1519C136.495 32.3898 136.506 32.6325 136.485 32.8734C136.289 34.5612 134.309 37.8186 132.509 37.6076C132.083 37.5612 131.887 37.4768 131.909 37.2954C131.93 37.1139 134.216 35.7679 134.284 35.1856C134.352 34.6034 133.914 31.8101 132.679 31.6793C131.56 31.5485 129.406 33.0591 128.908 34.2785C126.779 36.0886 123.123 39.2152 121.518 39.2152C121.518 38.3375 122.153 36.5021 123.119 34.519C127.963 31.3291 132.483 27.8987 132.483 26.5991C132.483 25.1856 132.249 23.6709 129.563 23.6709C126.111 23.6709 120.369 29.557 118.522 34.2869C117.445 34.962 113.592 37.3629 113.094 37.3629C112.796 37.3629 112.733 37.1013 112.733 36.9409C112.733 35.4008 119.603 29.0464 119.603 29.0464C119.603 29.0464 119.147 24.4051 117.611 24.4051C116.904 24.4051 115.423 25.5021 113.831 27.0675C113.009 27.5359 111.89 28.135 111.485 28.135C110.817 28.135 110.741 27.7806 110.741 27.3207C110.741 26.0337 113.248 24.3671 113.248 24.3671C113.248 24.3671 111.822 20.5696 110.187 20.5696C108.655 20.578 106.535 23.7299 106.535 25.8312ZM137.183 28.4599C137.285 27.616 139.311 27 139.43 27.0169C139.549 27.0337 139.609 27.1772 139.588 27.3502C138.968 28.3017 138.221 29.1648 137.366 29.9156C137.191 29.451 137.123 28.9538 137.166 28.4599H137.183ZM129.589 27.0675C130.44 27.0675 127.95 29.2996 124.651 31.7384C126.192 29.211 128.061 27.0675 129.572 27.0675H129.589Z" fill="#231F20"/>
<path d="M162.012 14.9241C159.883 14.9241 157.193 15.2785 153.988 15.7679C155.265 12.7764 156.167 10.1983 156.316 8.6287C156.495 6.67089 152.732 4.28693 152.732 4.28693C152.912 4.71049 152.963 5.17657 152.881 5.6287C152.626 8.38397 151.055 12.3333 149.11 16.4937C142.235 17.5774 135.289 18.15 128.329 18.2068C125.834 18.2068 125.515 17.3629 125.515 17.3629C125.515 17.3629 124.911 22.3207 130.585 22.3207C133.428 22.3207 140.452 21.3502 147.233 20.3798C144.061 26.7553 140.694 32.9536 140.469 35.5232C140.137 39.0928 142.597 41.6414 144.3 41.7975C147.309 42.0717 156.163 39.3122 156.865 31.7046C157.372 26.2194 152.715 26.5781 152.715 26.5781C152.807 26.8684 152.842 27.1735 152.817 27.4768C152.77 27.9705 150.932 38.6793 145.074 38.1435C144.992 38.14 144.911 38.119 144.837 38.0819C144.764 38.0448 144.699 37.9926 144.647 37.9286C144.596 37.8647 144.558 37.7905 144.538 37.7111C144.518 37.6317 144.515 37.549 144.53 37.4684C144.751 35.0886 148.935 26.9198 152.26 19.6414C156.997 18.9705 160.986 18.4346 162.407 18.4346C165.625 18.4346 165.962 19.1097 165.987 19.3249C166.008 18.789 165.825 14.9241 162.012 14.9241Z" fill="#231F20"/>
<path d="M149.42 57.1013H85.1241C82.5781 57.1013 80.5142 59.1471 80.5142 61.6709V65.9789C80.5142 68.5026 82.5781 70.5485 85.1241 70.5485H149.42C151.966 70.5485 154.03 68.5026 154.03 65.9789V61.6709C154.03 59.1471 151.966 57.1013 149.42 57.1013Z" fill="#97222E"/>
<path d="M84.409 65.3502C84.2068 65.3569 84.0067 65.3088 83.8301 65.211C83.6714 65.1211 83.5438 64.9858 83.464 64.8228C83.3753 64.6415 83.3315 64.4419 83.3363 64.2405C83.3315 64.0391 83.3753 63.8395 83.464 63.6582C83.5464 63.4992 83.6736 63.3673 83.8301 63.2785C84.0071 63.1822 84.2072 63.1355 84.409 63.1435C84.6134 63.136 84.8161 63.1826 84.9964 63.2785C85.1527 63.3681 85.2787 63.5017 85.3582 63.6624C85.4463 63.8424 85.49 64.0405 85.4859 64.2405C85.4914 64.4433 85.4476 64.6445 85.3582 64.827C85.2787 64.9877 85.1527 65.1214 84.9964 65.211C84.8166 65.3083 84.6138 65.3563 84.409 65.3502Z" fill="white"/>
<path d="M90.0916 67.903L88.8401 60.308H89.7298L90.5556 65.7679L91.5857 60.3376H92.3433L93.3862 65.8017L94.1907 60.3165H95.0633L93.8289 67.9114H93.0542L91.9858 62.2785L90.9046 67.9114L90.0916 67.903Z" fill="white"/>
<path d="M100.252 67.9874C99.8174 68.008 99.3859 67.904 99.0092 67.6878C98.703 67.4847 98.4715 67.1886 98.3494 66.8439C98.209 66.4222 98.1414 65.98 98.1494 65.5359V62.654C98.139 62.215 98.2082 61.7777 98.3537 61.3629C98.4705 61.0155 98.7032 60.7178 99.0135 60.519C99.3913 60.3108 99.8204 60.2115 100.252 60.2321C100.682 60.2104 101.109 60.3115 101.482 60.5232C101.791 60.724 102.023 61.021 102.142 61.3671C102.285 61.7737 102.355 62.2023 102.346 62.6329V65.5232C102.355 65.9635 102.285 66.4018 102.142 66.8186C102.018 67.1621 101.787 67.4576 101.482 67.6625C101.115 67.8927 100.686 68.006 100.252 67.9874ZM100.252 67.1435C100.48 67.1589 100.706 67.098 100.895 66.9705C101.045 66.8445 101.149 66.6721 101.189 66.481C101.243 66.2387 101.269 65.9909 101.265 65.7426V62.4093C101.269 62.1652 101.243 61.9216 101.189 61.6836C101.149 61.4983 101.045 61.3327 100.895 61.2152C100.704 61.0924 100.479 61.0347 100.252 61.0507C100.023 61.0355 99.7948 61.0932 99.6009 61.2152C99.4513 61.3337 99.3463 61.4987 99.3029 61.6836C99.2518 61.9221 99.2275 62.1655 99.2306 62.4093V65.7426C99.2278 65.9906 99.2521 66.2382 99.3029 66.481C99.3444 66.6726 99.4492 66.8449 99.6009 66.9705C99.7919 67.1004 100.021 67.1642 100.252 67.1519V67.1435Z" fill="white"/>
<path d="M105.764 67.9029V60.308H107.305C107.74 60.2944 108.173 60.3617 108.582 60.5063C108.901 60.6278 109.165 60.8583 109.327 61.1561C109.504 61.52 109.587 61.9214 109.57 62.3249C109.571 62.5949 109.54 62.8641 109.476 63.1266C109.421 63.3503 109.316 63.5591 109.17 63.7384C109.026 63.9089 108.835 64.0337 108.621 64.097L109.71 67.8945H108.672L107.667 64.3249H106.816V67.8945L105.764 67.9029ZM106.841 63.5738H107.267C107.518 63.5824 107.767 63.5437 108.003 63.4599C108.097 63.4271 108.182 63.3762 108.255 63.3103C108.328 63.2444 108.387 63.1647 108.429 63.0759C108.529 62.8355 108.574 62.5761 108.561 62.3164C108.59 61.978 108.505 61.6395 108.318 61.3544C108.186 61.2389 108.03 61.1528 107.861 61.1018C107.692 61.0509 107.514 61.0363 107.339 61.059H106.841V63.5738Z" fill="white"/>
<path d="M113.043 67.903V60.308H114.116V63.8903L115.878 60.308H116.87L115.355 63.6498L117.117 67.903H116.074L114.61 64.3333L114.116 65.2152V67.903H113.043Z" fill="white"/>
<path d="M121.91 67.9874C121.523 68.0005 121.14 67.9023 120.807 67.7047C120.513 67.5144 120.281 67.2431 120.139 66.9241C119.98 66.5597 119.89 66.1691 119.875 65.7722L120.82 65.519C120.84 65.7809 120.883 66.0406 120.948 66.2954C121.003 66.525 121.115 66.737 121.276 66.9114C121.358 66.9938 121.457 67.0578 121.567 67.0993C121.676 67.1407 121.793 67.1587 121.91 67.1519C122.026 67.1606 122.142 67.1443 122.25 67.1042C122.359 67.0642 122.458 67.0013 122.54 66.9199C122.693 66.7339 122.769 66.497 122.753 66.2574C122.771 65.9576 122.687 65.6603 122.514 65.4135C122.337 65.1839 122.137 64.9719 121.918 64.7806L120.641 63.654C120.405 63.4574 120.213 63.2128 120.08 62.9367C119.951 62.6324 119.89 62.3044 119.901 61.9747C119.886 61.7372 119.922 61.4993 120.005 61.2762C120.089 61.0532 120.219 60.8499 120.386 60.6793C120.563 60.52 120.771 60.3973 120.997 60.3184C121.223 60.2394 121.462 60.2058 121.701 60.2194C121.973 60.214 122.243 60.2539 122.502 60.3376C122.721 60.4089 122.92 60.532 123.08 60.6962C123.243 60.8753 123.367 61.0848 123.447 61.3123C123.546 61.5929 123.609 61.885 123.634 62.1815L122.723 62.4262C122.708 62.1922 122.67 61.9604 122.608 61.7342C122.561 61.5401 122.457 61.364 122.31 61.2279C122.138 61.091 121.921 61.0233 121.701 61.038C121.589 61.0306 121.476 61.0454 121.369 61.0817C121.263 61.1179 121.164 61.1748 121.08 61.249C121.001 61.3319 120.94 61.4303 120.902 61.5379C120.864 61.6455 120.849 61.7598 120.858 61.8734C120.851 62.0701 120.891 62.2657 120.978 62.4431C121.075 62.6192 121.205 62.7753 121.361 62.903L122.659 64.0296C122.957 64.2907 123.215 64.5934 123.425 64.9283C123.653 65.2988 123.768 65.7266 123.757 66.1604C123.765 66.5004 123.683 66.8365 123.519 67.135C123.366 67.399 123.142 67.6154 122.872 67.7595C122.575 67.9134 122.245 67.9917 121.91 67.9874Z" fill="white"/>
<path d="M126.95 67.903V60.308H128.018V63.5907H129.989V60.308H131.057V67.903H129.989V64.346H128.018V67.903H126.95Z" fill="white"/>
<path d="M136.587 67.9873C136.153 68.0074 135.723 67.9034 135.348 67.6878C135.038 67.4872 134.805 67.1903 134.684 66.8439C134.545 66.4219 134.479 65.9797 134.488 65.5359V62.654C134.477 62.2152 134.544 61.7779 134.688 61.3629C134.805 61.0143 135.04 60.7163 135.352 60.519C135.729 60.3112 136.156 60.2118 136.587 60.2321C137.018 60.2105 137.446 60.3115 137.821 60.5232C138.128 60.7242 138.359 61.0212 138.477 61.3671C138.62 61.7737 138.689 62.2023 138.681 62.6329V65.5232C138.689 65.9635 138.62 66.4018 138.477 66.8186C138.354 67.1618 138.125 67.4573 137.821 67.6624C137.452 67.892 137.022 68.0053 136.587 67.9873ZM136.587 67.1435C136.816 67.1589 137.044 67.098 137.234 66.9705C137.384 66.8444 137.487 66.6721 137.527 66.481C137.578 66.2382 137.603 65.9906 137.6 65.7426V62.4093C137.603 62.1655 137.579 61.9221 137.527 61.6835C137.487 61.4983 137.384 61.3327 137.234 61.2152C137.042 61.0926 136.815 61.0349 136.587 61.0506C136.359 61.0361 136.132 61.0937 135.94 61.2152C135.787 61.3313 135.682 61.4973 135.642 61.6835C135.587 61.9215 135.561 62.1652 135.565 62.4093V65.7426C135.562 65.9909 135.587 66.2387 135.642 66.481C135.681 66.6736 135.786 66.8466 135.94 66.9705C136.129 67.0998 136.357 67.1636 136.587 67.1519V67.1435Z" fill="white"/>
<path d="M142.099 67.903V60.308H144.002C144.387 60.2882 144.77 60.3744 145.108 60.557C145.383 60.7242 145.594 60.9763 145.709 61.2743C145.844 61.6373 145.907 62.0226 145.896 62.4093C145.906 62.7682 145.833 63.1247 145.683 63.4515C145.55 63.7378 145.33 63.9755 145.053 64.1308C144.735 64.3015 144.376 64.3845 144.015 64.3713H143.163V67.9114L142.099 67.903ZM143.172 63.6034H143.661C143.91 63.6136 144.158 63.5779 144.393 63.4979C144.478 63.4663 144.554 63.4182 144.619 63.3566C144.685 63.295 144.736 63.2211 144.772 63.1392C144.855 62.905 144.893 62.6574 144.883 62.4093C144.893 62.1257 144.866 61.842 144.802 61.5654C144.785 61.4732 144.745 61.3865 144.687 61.313C144.628 61.2394 144.552 61.1812 144.466 61.1435C144.211 61.0577 143.943 61.0204 143.674 61.0338H143.172V63.6034Z" fill="white"/>
<path d="M150.131 65.3503C149.929 65.3569 149.729 65.3088 149.552 65.211C149.394 65.1211 149.266 64.9858 149.186 64.8228C149.098 64.6416 149.054 64.4419 149.059 64.2405C149.054 64.0391 149.098 63.8395 149.186 63.6583C149.269 63.4992 149.396 63.3673 149.552 63.2785C149.729 63.1822 149.93 63.1355 150.131 63.1435C150.336 63.135 150.539 63.1817 150.719 63.2785C150.875 63.3681 151.001 63.5018 151.081 63.6625C151.169 63.8425 151.212 64.0406 151.208 64.2405C151.214 64.4434 151.17 64.6445 151.081 64.827C151.001 64.9878 150.875 65.1214 150.719 65.211C150.539 65.3093 150.336 65.3574 150.131 65.3503Z" fill="white"/>
</g>
<defs>
<clipPath id="clip0">
<rect width="166" height="79" fill="white"/>
</clipPath>
</defs>
</svg>
