<svg width="55" height="55" viewBox="0 0 55 55" fill="none" xmlns="http://www.w3.org/2000/svg">
<path d="M27.5 0C12.3076 0 0 12.3094 0 27.5C0 42.6906 12.3094 55 27.5 55C42.6924 55 55 42.6906 55 27.5C55 12.3094 42.6906 0 27.5 0ZM41.0069 18.8402L36.4934 40.1092C36.1598 41.6173 35.2621 41.9827 34.0095 41.2731L27.1345 36.206L23.8185 39.3995C23.4531 39.765 23.1426 40.0755 22.4329 40.0755L22.9208 33.0781L35.6613 21.5671C36.2166 21.0792 35.5389 20.8024 34.8061 21.2903L19.0602 31.2027L12.2739 29.0844C10.7995 28.6195 10.7658 27.61 12.5844 26.9003L39.0979 16.6756C40.3292 16.2321 41.4044 16.9755 41.0052 18.8384L41.0069 18.8402Z" fill="#97222E"/>
</svg>
