<svg width="48" height="52" viewBox="0 0 48 52" fill="none" xmlns="http://www.w3.org/2000/svg">
<path d="M24.8975 19.9263C24.6588 19.676 24.3368 19.5356 24.0013 19.5356C23.6657 19.5356 23.3437 19.676 23.105 19.9263L15.945 27.3749C15.8272 27.4978 15.7337 27.6445 15.6699 27.8062C15.606 27.9679 15.5731 28.1415 15.5731 28.3169C15.5731 28.4922 15.606 28.6658 15.6699 28.8276C15.7337 28.9893 15.8272 29.1359 15.945 29.2589C16.1837 29.5092 16.5057 29.6497 16.8412 29.6497C17.1768 29.6497 17.4988 29.5092 17.7375 29.2589L24 23.1504L30.265 29.2589C30.5044 29.5088 30.8267 29.6488 31.1625 29.6488C31.4983 29.6488 31.8206 29.5088 32.06 29.2589C32.1772 29.1355 32.2702 28.9888 32.3336 28.8271C32.3971 28.6654 32.4297 28.492 32.4297 28.3169C32.4297 28.1417 32.3971 27.9683 32.3336 27.8066C32.2702 27.6449 32.1772 27.4982 32.06 27.3749L24.8975 19.9263ZM24 0.329834C17.6348 0.329834 11.5303 3.01371 7.02944 7.79103C2.52856 12.5684 0 19.0478 0 25.804C0 39.8758 10.745 51.2781 24 51.2781C37.255 51.2781 48 39.8758 48 25.804C48 22.4586 47.3792 19.1461 46.1731 16.0554C44.967 12.9648 43.1992 10.1565 40.9706 7.79103C38.742 5.42554 36.0962 3.54913 33.1844 2.26894C30.2726 0.988742 27.1517 0.329834 24 0.329834ZM24 47.9717C21.2573 47.9721 18.5413 47.3989 16.0073 46.285C13.4732 45.1711 11.1708 43.5383 9.23134 41.4797C7.29192 39.4212 5.75356 36.9773 4.70411 34.2876C3.65465 31.5979 3.11467 28.7152 3.115 25.804C3.115 21.4196 4.33988 17.1337 6.63476 13.4882C8.92963 9.84271 12.1914 7.00141 16.0077 5.32359C19.8239 3.64576 24.0232 3.20676 28.0745 4.06211C32.1258 4.91746 35.8471 7.02874 38.7679 10.129C41.6887 13.2292 43.6778 17.1791 44.4837 21.4792C45.2896 25.7794 44.876 30.2366 43.2952 34.2872C41.7145 38.3378 39.0376 41.8 35.6031 44.2358C32.1686 46.6716 28.1307 47.9717 24 47.9717Z" fill="#F3F3F3"/>
</svg>
