<svg width="55" height="56" viewBox="0 0 55 56" fill="none" xmlns="http://www.w3.org/2000/svg">
<path d="M26.0524 0.138619C21.402 0.191907 11.4039 0.917309 5.81177 5.78713C1.65209 9.69949 0.199727 15.4838 0.0295006 22.6364C-0.111751 29.7632 -0.281978 43.147 13.309 46.7912V52.3418C13.309 52.3418 13.2239 54.5627 14.7704 55.0182C16.6755 55.5906 17.7602 53.882 19.5712 52.0461L22.9485 48.4208C32.2476 49.1548 39.37 47.4634 40.1903 47.2124C42.0773 46.64 52.7056 45.3508 54.4423 31.9652C56.2242 18.1413 53.5748 9.43133 48.7922 5.49147H48.7632C47.3199 4.22975 41.5195 0.217692 28.5606 0.172999C28.5606 0.172999 27.599 0.111116 26.0524 0.1369V0.138619ZM26.2118 4.02519C27.532 4.0166 28.3342 4.06989 28.3342 4.06989C39.303 4.09739 44.5383 7.23106 45.7734 8.2865C49.8009 11.5628 51.8762 19.4151 50.3568 30.9562C48.9135 42.1466 40.2935 42.8548 38.6981 43.3379C38.019 43.5441 31.746 45.0121 23.8431 44.5291C23.8431 44.5291 17.9576 51.2709 16.1177 53.007C15.8262 53.3113 15.4857 53.4007 15.2684 53.356C14.9569 53.2838 14.8628 52.9176 14.8809 52.4157L14.937 43.2038C3.41049 40.1784 4.08959 28.7628 4.21273 22.7997C4.35398 16.8366 5.53289 11.9582 9.04246 8.65436C13.7672 4.59933 22.2568 4.0527 26.2082 4.02519H26.2118ZM27.081 9.98655C26.9862 9.98565 26.8921 10.0026 26.8041 10.0364C26.7162 10.0701 26.6361 10.1201 26.5686 10.1834C26.5011 10.2467 26.4475 10.322 26.4108 10.405C26.3741 10.4881 26.3551 10.5772 26.3549 10.6673C26.3549 11.0523 26.6845 11.3566 27.081 11.3566C28.8766 11.3242 30.6611 11.6295 32.3317 12.2549C34.0023 12.8804 35.526 13.8136 36.8148 15.0008C39.446 17.4262 40.7282 20.6854 40.7771 24.9467C40.7771 25.3231 41.0976 25.636 41.5032 25.636V25.6085C41.6944 25.6089 41.878 25.5376 42.0141 25.4101C42.1501 25.2826 42.2275 25.1092 42.2294 24.9278C42.3173 22.922 41.9747 20.9202 41.2222 19.044C40.4698 17.1679 39.3233 15.4566 37.8524 14.0141C34.9857 11.3548 31.353 9.98483 27.081 9.98483V9.98655ZM17.5357 11.5628C17.0231 11.4917 16.5003 11.5894 16.0543 11.8396H16.0163C14.9809 12.4157 14.0482 13.1438 13.2529 13.9969C12.5919 14.7223 12.2333 15.4563 12.1391 16.1628C12.083 16.5839 12.121 17.0051 12.2532 17.4073L12.3003 17.4348C13.0446 19.5113 14.0171 21.5088 15.205 23.3893C16.7353 26.0313 18.6185 28.4746 20.808 30.6588L20.8732 30.7482L20.9764 30.8204L21.0416 30.8926L21.1177 30.9544C23.427 33.0388 26.0073 34.8348 28.796 36.2987C31.9832 37.9455 33.9173 38.7242 35.0781 39.0473V39.0645C35.4185 39.1625 35.7282 39.2072 36.0397 39.2072C37.029 39.1384 37.9655 38.7571 38.6999 38.1242C39.5946 37.3691 40.3531 36.4801 40.9455 35.4925V35.4753C41.5014 34.4818 41.3131 33.5415 40.5108 32.9055C38.9042 31.5724 37.1669 30.3884 35.3226 29.3696C34.0875 28.7336 32.8325 29.1186 32.3237 29.7632L31.2389 31.061C30.683 31.7056 29.6725 31.6163 29.6725 31.6163L29.6435 31.6334C22.1083 29.8062 20.0981 22.5642 20.0981 22.5642C20.0981 22.5642 20.004 21.5792 20.7012 21.0773L22.0594 20.039C22.7095 19.5371 23.1622 18.3476 22.465 17.1735C21.3991 15.4205 20.1545 13.7709 18.749 12.2487C18.4417 11.8898 18.0107 11.6457 17.5321 11.5594L17.5357 11.5628ZM28.3342 13.605C27.3726 13.605 27.3726 14.9836 28.3433 14.9836C29.539 15.002 30.7192 15.2439 31.8163 15.6955C32.9135 16.147 33.9062 16.7994 34.7376 17.6153C35.4961 18.4095 36.0789 19.3401 36.4516 20.352C36.8242 21.3638 36.9791 22.4364 36.9071 23.5062C36.9104 23.6872 36.9883 23.8598 37.124 23.9871C37.2597 24.1143 37.4425 24.186 37.6333 24.1869L37.6623 24.223C37.8544 24.2216 38.0383 24.1486 38.1742 24.0196C38.3101 23.8906 38.387 23.7161 38.3884 23.5337C38.4536 20.8023 37.559 18.5109 35.8043 16.675C34.0404 14.8392 31.5794 13.8095 28.4374 13.605H28.3342ZM29.524 17.3111C28.5334 17.2835 28.4954 18.6897 29.4769 18.7172C31.8637 18.834 33.0227 19.9789 33.1748 22.3339C33.1781 22.5126 33.255 22.683 33.389 22.8087C33.5231 22.9343 33.7036 23.0051 33.8919 23.006H33.9209C34.0177 23.002 34.1128 22.9798 34.2005 22.9406C34.2882 22.9015 34.3667 22.8461 34.4317 22.7778C34.4966 22.7094 34.5465 22.6295 34.5785 22.5427C34.6105 22.4558 34.624 22.3638 34.6181 22.272C34.4479 19.2019 32.684 17.4726 29.553 17.3128H29.524V17.3111Z" fill="#97222E"/>
</svg>
